<?xml version="1.0" encoding="UTF-8"?>
<svg width="53px" height="53px" viewBox="0 0 53 53" version="1.1" xmlns="http://www.w3.org/2000/svg" xmlns:xlink="http://www.w3.org/1999/xlink">
    <!-- Generator: Sketch 52.4 (67378) - http://www.bohemiancoding.com/sketch -->
    <title>noun_Log Out_1934001_000000</title>
    <desc>Created with Sketch.</desc>
    <g id="Symbols" stroke="none" stroke-width="1" fill="none" fill-rule="evenodd">
        <g id="Name-and-Logout" transform="translate(-268.000000, -12.000000)" fill="#FFFFFF" fill-rule="nonzero" stroke="#FFFFFF">
            <g id="noun_Log-Out_1934001_000000" transform="translate(269.000000, 13.000000)">
                <path d="M13.9684078,0.589368259 C13.50773,0.196456086 12.9483356,3.55271368e-15 12.2902245,3.55271368e-15 L2.41855824,3.55271368e-15 C1.76044715,3.55271368e-15 1.18459995,0.196456086 0.691016639,0.589368259 C0.23033888,0.956086287 0,1.40138675 0,1.92526965 L0,49.0747304 C0,49.5986133 0.23033888,50.0570108 0.691016639,50.449923 C1.18459995,50.816641 1.76044715,51 2.41855824,51 L12.2902245,51 C12.9483356,51 13.50773,50.816641 13.9684078,50.449923 C14.4619911,50.0570108 14.7087827,49.5986133 14.7087827,49.0747304 C14.7087827,48.5508475 14.4619911,48.105547 13.9684078,47.738829 C13.50773,47.3459168 12.9483356,47.1494607 12.2902245,47.1494607 L4,47.1494607 L4,3.85053929 L12.2902245,3.85053929 C12.9483356,3.85053929 13.50773,3.66718028 13.9684078,3.30046225 C14.4619911,2.90755008 14.7087827,2.44915254 14.7087827,1.92526965 C14.7087827,1.40138675 14.4619911,0.956086287 13.9684078,0.589368259 Z M50.4106317,26.8751926 C50.8035439,26.4822804 51,26.0238829 51,25.5 C51,24.9761171 50.8035439,24.5308166 50.4106317,24.1640986 L34.6941448,8.44761171 C34.3274268,8.05469954 33.8821263,7.85824345 33.3582435,7.85824345 C32.8343606,7.85824345 32.375963,8.05469954 31.9830508,8.44761171 C31.6163328,8.81432974 31.4329738,9.2596302 31.4329738,9.7835131 C31.4329738,10.307396 31.6163328,10.7657935 31.9830508,11.1587057 L44.4383667,23.5747304 L9.7835131,23.5747304 C9.2596302,23.5747304 8.80123267,23.7711864 8.40832049,24.1640986 C8.04160247,24.5308166 7.85824345,24.9761171 7.85824345,25.5 C7.85824345,26.0238829 8.04160247,26.4822804 8.40832049,26.8751926 C8.80123267,27.2419106 9.2596302,27.4252696 9.7835131,27.4252696 L44.4383667,27.4252696 L31.9830508,39.8805855 C31.6163328,40.2473035 31.4329738,40.692604 31.4329738,41.2164869 C31.4329738,41.7403698 31.6163328,42.1987673 31.9830508,42.5916795 C32.375963,42.9583975 32.8343606,43.1417565 33.3582435,43.1417565 C33.8821263,43.1417565 34.3274268,42.9583975 34.6941448,42.5916795 L50.4106317,26.8751926 Z" id="Shape"></path>
            </g>
        </g>
    </g>
</svg>