<?xml version="1.0" encoding="UTF-8"?>
<svg width="62px" height="62px" viewBox="0 0 62 62" version="1.1" xmlns="http://www.w3.org/2000/svg" xmlns:xlink="http://www.w3.org/1999/xlink">
    <!-- Generator: Sketch 52.4 (67378) - http://www.bohemiancoding.com/sketch -->
    <title>logout</title>
    <desc>Created with Sketch.</desc>
    <g id="Page-1" stroke="none" stroke-width="1" fill="none" fill-rule="evenodd">
        <g id="logout" transform="translate(1.000000, 1.000000)" fill="#FFFFFF" fill-rule="nonzero" stroke="#FFFFFF">
            <path d="M16.4334209,0.693374422 C15.8914471,0.231124807 15.233336,3.55271368e-15 14.4590876,3.55271368e-15 L2.84536264,3.55271368e-15 C2.07111429,3.55271368e-15 1.393647,0.231124807 0.812960752,0.693374422 C0.270986918,1.1248074 0,1.64869029 0,2.26502312 L0,57.7349769 C0,58.3513098 0.270986918,58.8906009 0.812960752,59.3528506 C1.393647,59.7842835 2.07111429,60 2.84536264,60 L14.4590876,60 C15.233336,60 15.8914471,59.7842835 16.4334209,59.3528506 C17.0141072,58.8906009 17.3044502,58.3513098 17.3044502,57.7349769 C17.3044502,57.1186441 17.0141072,56.5947612 16.4334209,56.1633282 C15.8914471,55.7010786 15.233336,55.4699538 14.4590876,55.4699538 L4.70588235,55.4699538 L4.70588235,4.53004622 L14.4590876,4.53004622 C15.233336,4.53004622 15.8914471,4.31432974 16.4334209,3.88289676 C17.0141072,3.42064715 17.3044502,2.88135593 17.3044502,2.26502312 C17.3044502,1.64869029 17.0141072,1.1248074 16.4334209,0.693374422 Z M59.3066255,31.6178736 C59.7688752,31.155624 60,30.6163328 60,30 C60,29.3836672 59.7688752,28.8597842 59.3066255,28.4283513 L40.8166409,9.93836672 C40.385208,9.47611711 39.8613251,9.24499229 39.2449924,9.24499229 C38.6286595,9.24499229 38.0893682,9.47611711 37.6271186,9.93836672 C37.1956856,10.3697997 36.9799692,10.8936826 36.9799692,11.5100154 C36.9799692,12.1263482 37.1956856,12.6656394 37.6271186,13.1278891 L52.2804314,27.7349769 L11.5100154,27.7349769 C10.8936826,27.7349769 10.3543914,27.9661016 9.89214175,28.4283513 C9.46070879,28.8597842 9.24499229,29.3836672 9.24499229,30 C9.24499229,30.6163328 9.46070879,31.155624 9.89214175,31.6178736 C10.3543914,32.0493066 10.8936826,32.2650231 11.5100154,32.2650231 L52.2804314,32.2650231 L37.6271186,46.9183359 C37.1956856,47.3497688 36.9799692,47.8736518 36.9799692,48.4899846 C36.9799692,49.1063174 37.1956856,49.6456086 37.6271186,50.1078582 C38.0893682,50.5392912 38.6286595,50.7550076 39.2449924,50.7550076 C39.8613251,50.7550076 40.385208,50.5392912 40.8166409,50.1078582 L59.3066255,31.6178736 Z" id="Shape"></path>
        </g>
    </g>
</svg>