<?xml version="1.0" encoding="UTF-8"?>
<svg width="35px" height="37px" viewBox="0 0 35 37" version="1.1" xmlns="http://www.w3.org/2000/svg" xmlns:xlink="http://www.w3.org/1999/xlink">
    <!-- Generator: Sketch 52.4 (67378) - http://www.bohemiancoding.com/sketch -->
    <title>noun_Loupe_1713458_000000</title>
    <desc>Created with Sketch.</desc>
    <g id="Page-1" stroke="none" stroke-width="1" fill="none" fill-rule="evenodd">
        <g id="13-Team-Calender" transform="translate(-318.000000, -149.000000)" fill="#000000">
            <g id="Teamlist-overview" transform="translate(-24.000000, 134.000000)">
                <g id="noun_Loupe_1713458_000000" transform="translate(342.000000, 15.582703)">
                    <path d="M34.3577335,32.1969784 L24.9002043,22.7122617 C24.0719506,23.9445255 23.0024617,24.9949916 21.7567568,25.7997975 L31.2466869,35.3169683 C32.1061101,36.1765885 33.4973902,36.1756672 34.3556806,35.3149094 C35.213971,34.4541517 35.2148897,33.0588721 34.3577335,32.1969784 Z" id="Path"></path>
                    <path d="M24.2417741,21.3639395 C28.0229434,15.5215891 26.9277024,7.66274433 21.7058349,3.16743952 C16.4839674,-1.32786529 8.82701181,-1.00344976 3.97679242,3.91859665 C-0.873426966,8.84064305 -1.34576098,16.765904 2.88314238,22.2688778 C7.11204574,27.7718516 14.6723024,29.06994 20.3882867,25.2744933 C21.9153828,24.2551672 23.2264493,22.9246851 24.2417741,21.3639395 Z M18.1121864,22.9161617 C13.6539012,25.4541644 8.0713332,24.1858452 5.04697216,19.9478393 C2.02261112,15.7098334 2.48816767,9.8077372 6.1365417,6.13481444 C9.78491574,2.46189169 15.4921578,2.14965445 19.4935381,5.40406714 C23.4949183,8.65847984 24.5577371,14.4769602 21.9809158,19.0214009 C21.0569816,20.6598845 19.7194591,22.0064067 18.1121864,22.9161617 Z" id="Shape" fill-rule="nonzero"></path>
                </g>
            </g>
        </g>
    </g>
</svg>