<?xml version="1.0" encoding="UTF-8"?>
<svg width="30px" height="32px" viewBox="0 0 30 32" version="1.1" xmlns="http://www.w3.org/2000/svg" xmlns:xlink="http://www.w3.org/1999/xlink">
    <!-- Generator: Sketch 52.5 (67469) - http://www.bohemiancoding.com/sketch -->
    <title>trashbin</title>
    <desc>Created with Sketch.</desc>
    <g id="Page-1" stroke="none" stroke-width="1" fill="none" fill-rule="evenodd">
        <g id="trashbin" fill="#FFFFFF">
            <path d="M28.8562718,4.92733797 L20.4398591,4.92733797 L20.4398591,3.50672634 C20.4398591,1.72270243 18.9703268,0.269053324 17.1668098,0.269053324 L12.4910251,0.269053324 C10.687508,0.269053324 9.2179757,1.72270243 9.2179757,3.50672634 L9.2179757,4.92733797 L0.801563105,4.92733797 C0.36738309,4.92733797 -2.13162821e-14,5.29075025 -2.13162821e-14,5.72023749 C-2.13162821e-14,6.14972472 0.36738309,7.2972973 0.801563105,7.2972973 L3.24324324,7.2972973 L4.97637094,30.8617596 C5.00976941,31.2912468 5.37715249,31.6216216 5.77793405,31.6216216 L23.9132993,31.6216216 C24.3474793,31.6216216 24.6814639,31.2912468 24.7148624,30.8617596 L26.7567568,7.2972973 L28.8562718,7.2972973 C29.2904518,7.2972973 29.6578348,6.14972472 29.6578348,5.72023749 C29.6578348,5.29075025 29.3238503,4.92733797 28.8562718,4.92733797 Z M10.9459459,3.43967389 C10.9459459,2.58614386 11.6490139,1.89067494 12.51187,1.89067494 L16.9859386,1.89067494 C17.8487947,1.89067494 18.5518626,2.58614386 18.5518626,3.43967389 L18.5518626,4.7989995 L10.9459459,4.7989995 L10.9459459,3.43967389 Z M22.2820006,29.2618119 L7.71529216,29.2618119 L6.22352082,7.59633184 L23.7445215,7.59633184 L22.2820006,29.2618119 Z" id="Shape" fill-rule="nonzero"></path>
            <path d="M12.5675676,24.3243243 C13.2263514,24.3243243 13.7837838,23.9646905 13.7837838,23.5396687 L13.7837838,12.9468178 C13.7837838,12.521796 13.2263514,12.1621622 12.5675676,12.1621622 C11.9087838,12.1621622 11.3513514,12.521796 11.3513514,12.9468178 L11.3513514,23.5396687 C11.3513514,23.9646905 11.9087838,24.3243243 12.5675676,24.3243243 Z" id="Path"></path>
            <path d="M17.4340309,24.3243243 C18.0919488,24.3243243 18.6486486,23.9646905 18.6486486,23.5396687 L18.6486486,12.9468178 C18.6486486,12.521796 18.0919488,12.1621622 17.4340309,12.1621622 C16.7761129,12.1621622 16.219413,12.521796 16.219413,12.9468178 L16.219413,23.5396687 C16.168804,23.9646905 16.7255038,24.3243243 17.4340309,24.3243243 Z" id="Path"></path>
        </g>
    </g>
</svg>